<svg viewBox="0 0 72 72" xmlns="http://www.w3.org/2000/svg"><circle cx="36" cy="36" r="7.35" transform="matrix(.70710678 -.70710678 .70710678 .70710678 -14.91 36)"/><path d="m36 0a36 36 0 1 0 36 36 36 36 0 0 0 -36-36zm21.29 44.47a12.84 12.84 0 0 1 -12.82 12.82h-16.94a12.84 12.84 0 0 1 -12.82-12.82v-16.94a12.84 12.84 0 0 1 12.82-12.82h16.94a12.84 12.84 0 0 1 12.82 12.82z"/><path d="m44.47 18.23h-16.94a9.31 9.31 0 0 0 -9.3 9.3v16.94a9.31 9.31 0 0 0 9.3 9.3h16.94a9.31 9.31 0 0 0 9.3-9.3v-16.94a9.31 9.31 0 0 0 -9.3-9.3zm-8.47 28.63a10.86 10.86 0 1 1 10.86-10.86 10.87 10.87 0 0 1 -10.86 10.86zm11.19-20a2.09 2.09 0 1 1 2.09-2.08 2.08 2.08 0 0 1 -2.09 2.11z"/></svg>