<svg viewBox="0 0 72 72" xmlns="http://www.w3.org/2000/svg"><path d="m36 0a36 36 0 1 0 36 36 36 36 0 0 0 -36-36zm18.1 26.71v1.2c0 12.35-9.39 26.59-26.58 26.59a26.49 26.49 0 0 1 -14.33-4.2 20.69 20.69 0 0 0 2.23.12 18.73 18.73 0 0 0 11.61-4 9.34 9.34 0 0 1 -8.73-6.49 9.29 9.29 0 0 0 1.76.17 9.48 9.48 0 0 0 2.46-.32 9.36 9.36 0 0 1 -7.49-9.17v-.11a9.32 9.32 0 0 0 4.23 1.17 9.35 9.35 0 0 1 -4.16-7.78 9.23 9.23 0 0 1 1.27-4.69 26.53 26.53 0 0 0 19.29 9.8 9.35 9.35 0 0 1 15.92-8.52 18.82 18.82 0 0 0 5.94-2.27 9.4 9.4 0 0 1 -4.11 5.17 19 19 0 0 0 5.37-1.47 18.69 18.69 0 0 1 -4.68 4.8z" fill="#010002"/></svg>