<svg height="47" viewBox="0 0 124 47" width="124" xmlns="http://www.w3.org/2000/svg"><path d="m13.5652587 0c-6.83147607 0-13.5652587 3.00822678-13.5652587 11.225573 0 12.1689746 17.0080683 9.2662002 17.0080683 16.2714113 0 3.3189143-3.9418699 4.7340169-6.8856193 4.7340169-3.05556717 0-6.83853822-.8980458-9.5045088-2.2677925v6.6332931c3.83240627.8946442 5.72389179 1.4173703 9.9458947 1.4173703 7.8295965 0 14.5363075-3.0535826 14.5363075-11.1121833 0-12.3277202-16.97864261-9.6143064-16.97864261-15.9879373 0-4.00378769 3.45575701-5.13088057 6.12055051-5.13088057 2.722468 0 6.0899478.7279614 8.5334599 1.72919179l.0588514-6.20808202c-2.8331086-.89577805-5.936934-1.3039807-9.2691029-1.3039807zm45.9629805 10.5452352c-5.6638633 0-10.8875178 2.514982-10.8875178 8.1924005 0 9.5122557 12.564784 5.9756333 12.564784 11.1405307 0 2.5569361-2.9331561 3.2316044-4.7669672 3.2316044-2.48 0-4.8269957-.6553921-7.0915994-1.7291918l-.4413859 5.6127865c2.641253.6633293 5.4296346 1.1338963 8.1803512 1.1338963 5.8780826 0 11.6525866-2.4526176 11.6525866-8.5892642 0-9.5122557-12.564784-6.8623402-12.564784-11.0554885 0-2.2507841 2.3258092-2.919783 4.2667299-2.919783 2.6424301 0 4.6457333.4184078 6.8561937 1.1338963l.0882301-5.159228c-2.2634267-.4603618-4.4609398-.9921592-7.8566683-.9921592zm24.9530136 0c-8.6805884 0-13.4475556 6.0425332-13.4475556 13.66345 0 8.0291194 4.5998292 13.9185766 13.7123875 13.9185766 2.9649356 0 5.1071283-.2653318 7.2093018-.8787696l-.3236829-5.6694814c-1.2394114.5113872-3.4816513 1.2189386-5.5320357 1.2189386-5.06711 0-7.5035599-3.7305188-7.5035599-8.5892642 0-4.9607962 2.8495873-8.3341376 7.3270053-8.3341376 2.2092835 0 3.6205413.4013993 4.9140963.9638119l.6473657-5.4143547c-1.9962415-.5624125-4.0913524-.8787696-7.0033225-.8787696zm22.8049362 0c-8.1956527 0-14.5068822 5.2805549-14.5068822 13.9752714 0 7.5698914 5.3413574 13.6067552 14.5068822 13.6067552 9.220845 0 14.565733-6.0368638 14.565733-13.6067552 0-8.6947165-6.315937-13.9752714-14.565733-13.9752714zm14.477456 0c-1.238234 0-2.206929.9252593-2.206929 2.0693607 0 1.1565741.968695 2.0977081 2.206929 2.0977081 1.237057 0 2.236355-.941134 2.236355-2.0977081 0-1.1441014-.981642-2.0693607-2.206929-2.0693607h-.029379zm-79.6554343.2551267-13.8006644 36.1996381h6.6207879l14.5068817-36.1996381zm79.6554343.2551267c.913375 0 1.559563.6916767 1.559563 1.5591073 0 .8685645-.659136 1.5987938-1.559563 1.5874547-.901604 0-1.559564-.7030156-1.559564-1.5591073 0-.8799035.683854-1.5874547 1.559564-1.5874547zm0 .5669481c-.413137 0-.743882.0612304-.882772.0849969v1.8992762h.617941v-.7086852h.20598c.200094 0 .286018.1190591.323683.3118214.037664.1689506.08484.325383.147128.3968638h.676792c-.037665-.0714808-.055368-.1768878-.117703-.4535585-.062429-.2778046-.187148-.4218548-.41196-.4819059v-.0283021c.274247-.0725693.441386-.26193.441386-.4535585 0-.1927624-.081263-.3129553-.205981-.3968637-.15066-.0963358-.343692-.1700844-.794494-.1700844zm-.235406.4252111h.20598c.213042 0 .353109.0691222.353109.2267792 0 .1326659-.157722.2267792-.382534.2267792h-.176555zm-14.24205 3.8268998c4.744604 0 7.003322 3.7838119 7.003322 7.8238842 0 4.3995176-1.4501 9.0995176-7.003322 9.0995176-5.499079 0-6.944471-4.7510254-6.944471-9.0995176 0-3.9380217 2.252833-7.8238842 6.944471-7.8238842z" fill="#fff"/><path d="m19.075454 8.20545943c3.0026004 2.92047027 5.9936656 6.48045137 8.1611209 10.65445167 1.9402128 3.7373153 2.9207009 7.3782051 3.6231917 11.0445867.0276843.1285671.118812.1197005.1684132.0188861 2.5815674-4.333601 4.1607299-10.2332833 1.8513921-14.6799348-2.4212287-4.6638856-8.241867-6.81184439-13.7060692-7.2429878-.1914835-.00798-.2249354.08866698-.0980487.20504251"/></svg>