<svg height="18" viewBox="0 0 18 18" width="18" xmlns="http://www.w3.org/2000/svg"><path d="m15 5.2785c-.4415.196-.916.328-1.414.3875.5085-.3045.899-.787 1.0825-1.362-.4755.282-1.0025.487-1.5635.5975-.4485-.4785-1.089-.7775-1.797-.7775-1.5895 0-2.7575 1.483-2.3985 3.0225-2.0455-.1025-3.8595-1.0825-5.074-2.572-.645 1.1065-.3345 2.554.7615 3.287-.403-.013-.783-.1235-1.1145-.308-.027 1.1405.7905 2.2075 1.9745 2.445-.3465.094-.726.116-1.112.042.313.978 1.222 1.6895 2.3 1.7095-1.035.8115-2.339 1.174-3.645 1.02 1.0895.6985 2.384 1.106 3.774 1.106 4.571 0 7.1535-3.8605 6.9975-7.323.481-.3475.8985-.781 1.2285-1.2745z"/><path d="m0 0h18v18h-18z" fill="none"/></svg>